<?xml version="1.0" encoding="UTF-8"?>
<!DOCTYPE svg PUBLIC "-//W3C//DTD SVG 1.1//EN" "http://www.w3.org/Graphics/SVG/1.1/DTD/svg11.dtd">
<!-- Creator: CorelDRAW 2020 (64-Bit) -->
<svg xmlns="http://www.w3.org/2000/svg" xml:space="preserve" width="19.685in" height="19.685in" version="1.1" style="shape-rendering:geometricPrecision; text-rendering:geometricPrecision; image-rendering:optimizeQuality; fill-rule:evenodd; clip-rule:evenodd"
viewBox="0 0 32036.95 32036.94"
 xmlns:xlink="http://www.w3.org/1999/xlink"
 xmlns:xodm="http://www.corel.com/coreldraw/odm/2003">
 <defs>
  <style type="text/css">
   <![CDATA[
    .fil0 {fill:#2F7A58}
    .fil2 {fill:#F1DF4F}
    .fil1 {fill:#F1EDE1}
   ]]>
  </style>
 </defs>
 <g id="Layer_x0020_1">
  <metadata id="CorelCorpID_0Corel-Layer"/>
  <g id="_2357827186880">
   <path class="fil0" d="M-0 16007.11c11.84,24.3 -30.16,7.61 78.45,59.24 551.11,262.03 844.5,563.11 1187.62,1122.82 934.73,1524.78 896,3277.05 2719.54,3458.42 454.57,45.2 721.15,-48.57 1125.23,-114.4l-171.35 117.4c-383.74,232.74 -820.42,651.26 -1005.86,1077.87 -528.16,1215.01 317.22,2166.1 756.64,3632.05 249.96,833.92 230.85,1254.99 -13.75,1998.36 365.59,-112.48 522.07,-198.14 975.63,-189.31 344.7,6.71 709,79.32 1019.11,175.39 1435.51,444.74 2512.88,1304.17 3668.7,738.75 476.3,-233 962.68,-747.43 1174.62,-1196.79 -113.68,645.35 -290.6,1316.71 142.57,2022.55 613.64,999.87 1878.59,1076.32 3140.36,1829.35 553.14,330.12 932.13,660.86 1209.2,1298.11 65.33,-37.85 96.11,-194.42 216.03,-381.01 551.76,-858.53 1739.34,-1297.42 2663.63,-1678.1 962.91,-396.59 1652.42,-808.2 1761.58,-1925.87 45.72,-468.15 -50.82,-715.97 -113.15,-1125.55 4.38,4.9 10.82,6.04 12.72,15.04 12.08,57.21 413.1,570.25 485.9,649.39 174.04,189.2 391.07,359.85 678.13,502.1 1419.85,703.63 2823.38,-866.89 4648.06,-922.03 466.05,-14.08 628.25,71.4 1001.42,188.44 -114.04,-362.77 -198.26,-527.42 -189.82,-978.25 16.83,-899.51 498.62,-1897.92 823.83,-2705.73 268.29,-666.41 425.21,-1194.84 116.05,-1930.78 -219.43,-522.35 -646.6,-856.29 -1092.24,-1141.82l-92.67 -69.48c652.85,97.96 1295.29,286.25 2034.45,-184.24 954.3,-607.43 1051.65,-1931.16 1800.8,-3143.35 163.27,-264.19 347.02,-516.65 535.59,-694.4 215.14,-202.81 368.48,-316.2 642.84,-436.91l97.1 -67.25c-620.7,-262.54 -980.75,-673.99 -1296.97,-1207.76 -705.71,-1191.25 -858.15,-2541.5 -1796.8,-3122.72 -751.36,-465.23 -1402.23,-262.66 -2052.34,-162.88 450.02,-211.35 960.41,-697.86 1197.05,-1172.72 341.03,-684.32 178.8,-1299.8 -80.39,-1945.03 -228.43,-568.66 -488.86,-1116.11 -661.17,-1723.01 -247.06,-870.2 -236.57,-1220.79 15.32,-1995.41 -378.8,114.57 -527.36,203.19 -1002.86,189.81 -349.39,-9.84 -684.62,-84.5 -996.55,-176.01 -1458.46,-427.85 -2413.09,-1282.06 -3631.11,-755.92 -737.34,318.5 -1046.1,1018.58 -1196.48,1174.6 120.57,-734.36 271.07,-1285.95 -196.21,-2046.07 -723.64,-1177.15 -3185.24,-1216.72 -4116.83,-2685.34 -96.5,-152.11 -155.62,-344.49 -214.24,-378.7 -813.73,1923.32 -3516.46,1767.17 -4321.26,3077.64 -459.29,747.87 -292.06,1341.21 -184.41,2031.72 -28.01,-30.39 3.34,9.27 -38.27,-45.93 -7.88,-10.44 -26.51,-37.98 -32.01,-46.5l-177.93 -273.11c-230.3,-315.79 -577.74,-648.92 -965.79,-816.56 -1200.68,-518.68 -2209.11,358.54 -3633.18,769.91 -777.96,224.73 -1232.58,243.62 -1979.11,-19.39 251.75,773.17 261.96,1129.15 15.26,1996.29 -400.85,1408.95 -1303.55,2434.9 -758.21,3632.82 258.37,567.53 645.32,833.89 1096.2,1136.62 43.51,29.21 47.66,33.09 76.16,58.63 -406.84,-54.27 -628.74,-155.08 -1101.15,-113.65 -366.27,32.12 -666.02,140.39 -926.72,297.92 -1303.28,787.51 -1163.5,3514.44 -3076.94,4320.7z"/>
   <path class="fil1" d="M16017.97 29941.37c177.5,-108.36 297.57,-292.81 469.37,-430.17 184.24,-147.31 285.87,-256.74 547.77,-380.75 1671.66,-791.56 2768.52,-750.7 1813.03,-3043.72 -53.97,-129.51 -2091.96,-5109.3 -2177.55,-5225.33l-412.9 35.8c-29.72,355.2 -4.1,2120.26 -4.1,2623.51 0,191.24 -34.16,1170.98 29.85,1266.61 80.77,120.7 218.77,205.38 130.29,458.72 -54.07,154.83 -177.32,282.36 -395.75,282.01 -212.24,-0.34 -330.17,-119.24 -388.17,-265.39 -92.37,-232.74 16.47,-338.36 112.46,-461.26 84.9,-108.71 40.95,-2281.65 40.95,-2585.71 0,-397.47 30.79,-936.41 -4.88,-1316.51l-412.74 -40.07c-87.49,127.16 -2134.85,5121.23 -2177.9,5227.57 -462.24,1141.69 -648.74,1941.2 501.31,2472.46 849.9,392.61 1176.15,401.72 1845.95,940.48 175.21,140.94 307.3,322.02 483.01,441.73z"/>
   <path class="fil1" d="M13056.13 19906.84c-90,-82.91 -236.44,-212.42 -324.1,-267.41 -339,294.94 -1296.34,1293.21 -1693.9,1688.17 -291.66,289.77 -563.35,562.27 -853.55,853.12 -73.27,73.45 -163.78,122.38 -178.45,239.25 -19.17,152.68 -25.78,233.27 -113.98,321.61 -146.84,147.08 -454.96,158.05 -605.13,5 -155.76,-158.76 -214.55,-665.68 304.5,-715.77 148.25,-14.31 174.22,-83.34 253.56,-164.43l1706.9 -1706.74c148.48,-147.45 757.51,-736.97 840.68,-855.12 -38.1,-75.31 -190.72,-246.14 -265.36,-325.2 -163.13,39.16 -459.15,180.32 -626.71,251.12 -212.37,89.72 -426.28,175.01 -638.7,264.44l-3834.43 1587.25c-834.08,353.3 -1900.37,724.62 -1601.07,1911.38 164.72,653.11 632.23,1411.06 699.08,2008.39 14.04,125.4 21.36,819.95 53.19,852.7 50.66,52.11 688.62,38.02 828.19,52.5 597.1,61.93 1341.37,510.04 2012.22,696.09 1192.49,330.72 1579.37,-756.33 1926.98,-1577.9l1588.39 -3832.93c96.16,-236.87 483.36,-1120.76 521.69,-1285.53z"/>
   <path class="fil1" d="M2093.61 16016.89c103.76,177.86 293.42,296.2 428.69,468.07 146.22,185.76 256.35,284.53 381.3,546.58 782.66,1641.41 750.99,2786.93 3044.87,1817.73 281.63,-119 5117.87,-2092.33 5226.74,-2179.86l-36.52 -413.07c-529.07,-30.98 -1994.98,-2.4 -2625.95,-2.4 -201.87,0 -1156.48,-45.63 -1263.79,31.58 -122.71,88.31 -214.17,214.88 -462.34,127.46 -576.47,-203.08 -175.34,-1166.79 446.42,-672.78 111.49,88.58 2278.06,43.86 2584.98,43.86 418.62,0 909.95,23.46 1319.63,-4.09l39.44 -415.24c-111.1,-72.43 -1078.27,-456.23 -1290.71,-545.78l-3939.83 -1631.77c-1144.77,-476.95 -1943.19,-630.75 -2469.78,504.99 -320.04,690.27 -462.25,1292.24 -940.22,1846.09 -154.63,179.18 -306.22,300.19 -442.94,478.63z"/>
   <path class="fil1" d="M20869.32 15347.92l27.05 431.83c416.81,31.2 2078.35,4.31 2626.82,4.31 194.5,0 1169.62,34.51 1267.75,-31.85 125.87,-85.12 201.47,-212.25 457.84,-130.75 341.04,108.41 401.08,634.84 18.43,784.89 -229.43,89.97 -343.74,-9.52 -466.71,-110.47 -103.03,-84.57 -2282.92,-42.22 -2582.56,-42.22 -409.86,0 -918.04,-26.71 -1315.67,3.91l-43.7 432.31 5229.44 2158.94c1143.61,480.98 1947.48,632.62 2473.99,-504.29 198.69,-429.05 360.46,-868.77 563.19,-1295.15 252.04,-530.1 694.44,-816.36 818.24,-1032.48 -267.9,-357.35 -502.45,-425.5 -809.86,-1017.27 -212.14,-408.38 -375.04,-874.92 -565.18,-1291.51 -517.27,-1133.35 -1306.92,-1012.6 -2461.08,-527.96l-3922.05 1624.41c-431.92,182.23 -878.23,378.98 -1315.92,543.37z"/>
   <path class="fil1" d="M12127.31 13058.88c61.06,-59.44 239.54,-268.88 270.78,-330.84 -884.11,-855.45 -1763.3,-1773.14 -2642.84,-2645.91 -63.26,-62.77 -49.08,-61.07 -160.75,-74.61 -545.58,-66.16 -460.22,-560.99 -303.45,-716.28 162.77,-161.24 664.54,-213.75 713.75,300.6 14.09,147.18 89.45,179.61 163.22,252.7 292.02,289.33 561.02,565.03 853.33,853.25 524.06,516.73 1199.23,1230.36 1704.33,1700.98l332.33 -271.82c-52.6,-185.05 -173.38,-442.87 -252.17,-628.03l-1853.59 -4471.79c-340.96,-829.05 -742.12,-1905.94 -1910.29,-1597.96 -618.24,162.99 -1438.57,636.89 -2011.54,699.31 -123.36,13.44 -816.53,19.97 -849.9,52.87 -52.48,51.77 -38.29,689.18 -52.03,826.15 -26.64,265.4 -107.75,476.49 -194.39,709.08 -157.57,422.97 -388.98,876.1 -501.69,1305.17 -315.92,1202.69 741.34,1568.56 1574.7,1924.66l4472.09 1853.52c175.27,71.82 484.19,221.74 648.09,258.96z"/>
   <path class="fil1" d="M19643.94 19304.52l828.64 841.46c291.41,288.26 563.92,562.58 853.74,853.22 290,290.83 564.86,561.36 852.78,853.87 338.73,344.12 326.75,72.78 559.88,293.23 396.19,374.63 -170.17,982.59 -580.26,605.53 -79.32,-72.92 -112.25,-162.57 -126.35,-309.32 -13.6,-141.64 -84.28,-167.58 -167.38,-250.35 -291.11,-289.96 -561.61,-563.88 -853.49,-853.07 -291.7,-289.03 -563.31,-562.76 -853.43,-853.5l-853.61 -845.9 -323.6 267.13c21.62,128.46 971.9,2376.15 1043.07,2544.87 361.82,857.81 705.05,1689.77 1059.32,2555.28 340.64,832.22 741.57,1909.83 1913.97,1601.91 629.77,-165.4 1425.03,-635.44 2011.4,-699.81 205.06,-22.51 715.71,5.25 851.73,-53.15 115.03,-304.6 -113.34,-608.55 242.73,-1537.61 162.33,-423.53 383.94,-867.48 502.38,-1304.81 321.59,-1187.48 -754.46,-1578.26 -1579.2,-1924.27l-3833.7 -1587.65c-188.17,-78.54 -1167.48,-498.87 -1283.93,-521.18 -63.98,53.15 -238,271.41 -264.7,324.11z"/>
   <path class="fil1" d="M18978.23 12126.94c53.69,57.61 272.53,241.42 331.68,270.89 275.25,-235 571.12,-567.98 839.14,-833.54l1694.53 -1693.97c56.26,-55.64 169.24,-140.61 184.67,-233.38 28.69,-172.54 2.4,-208.45 109.37,-325.73 390.29,-427.96 994.66,188.47 606.08,580.62 -81.98,82.74 -163.2,99.05 -303.34,116.06 -143.01,17.37 -171.35,90.14 -257.49,176.5l-2542.78 2545.94c34.95,65.68 204.65,262.66 268.53,328.6l5102.7 -2104.8c830.99,-355.61 1903.37,-718.66 1598.37,-1913.89 -158.35,-620.52 -634.19,-1427.27 -698.76,-2009.23 -15.59,-140.51 -1.81,-798.55 -54.82,-849.99 -34.17,-33.16 -706.48,-38.02 -826.63,-50.28 -586.93,-59.88 -1399.76,-527.64 -2015.79,-696.59 -1182.54,-324.3 -1576.29,752.9 -1922.72,1575.88l-1852.33 4472.15c-83.12,197.14 -204.71,452.47 -260.43,644.76z"/>
   <path class="fil1" d="M15365.34 11175.74l415.57 -35.28c39.07,-798.6 2.31,-1694.66 2.31,-2501.93 0,-413.35 12.9,-846 2.49,-1256.59 -5.59,-220.09 -168.31,-155.14 -184.76,-427.45 -40.19,-665.32 1044.44,-522.96 810.64,119.73 -136.89,376.32 -157.99,-208.37 -157.99,1087.47l0.1 2975.52 416.68 41.32c83.62,-113.99 208.63,-476.37 275.22,-633.83l1904.13 -4596.28c970.62,-2347.79 -201.45,-2233.94 -1796.95,-3036.8 -269.54,-135.64 -355.18,-209.39 -555.67,-374.12 -134.06,-110.16 -312.48,-325.39 -479.14,-441.49 -356.78,268.22 -508.57,557.26 -1017.7,807.72 -1628.35,801.05 -2778.76,725.11 -1813.23,3043.98l1623.72 3922.68c76.45,190.25 484.41,1207.59 554.59,1305.33z"/>
   <path class="fil1" d="M18189.93 11658.08c179.43,58.6 330.42,185.98 483.76,260.09 157.97,-295.63 2091.9,-5039.09 2222.39,-5353.71 961.47,-2318.1 2053.13,-1391.12 3569.04,-851.51 611.69,217.74 1061.97,179.74 1729.52,131.4 -119.4,1792.28 157.58,1577.67 657.16,3079.23 434.51,1306.01 -434.66,1823.27 -1359.94,2210.39l-4703.08 1948.16c-205.45,82.36 -478.73,181.28 -670.33,282.75 74.4,135.5 213.34,324.73 259.63,483.16 206.5,-46.24 4180.68,-1706.03 4539.91,-1857.3 980.5,-412.89 2063.28,-681.59 2641.54,-1625.26 937.19,-1529.41 -927.05,-2710.32 -785.33,-5100.78 -2291.39,143.68 -3634.51,-1705.86 -5086.1,-794.45 -399.31,250.71 -768.56,648.11 -1007.04,1125.39 -108.74,217.64 -215.22,500.31 -312.73,742.14 -99.47,246.7 -207.91,507.79 -314.42,764.55 -205.96,496.52 -412.48,1011.09 -622.22,1510.91l-929.79 2257.84c-81.11,196.78 -271.19,588.38 -311.98,787.01z"/>
   <path class="fil1" d="M20133.01 18677.11c140.68,84.9 5169.35,2144.05 5357.37,2223.69 915.5,387.81 1800.84,914.45 1363.62,2210.76 -512.76,1520.24 -774.58,1288.81 -659.77,3081.51 -946.64,-67.69 -1187.74,-109.62 -2145.63,287.02 -374.49,155.08 -916.47,413.97 -1332.63,475.16 -1148.27,168.83 -1566.28,-879.8 -1907.48,-1699.39 -358.32,-860.72 -694.79,-1696.84 -1059.05,-2554.68l-1061.18 -2578.28c-169.84,55.8 -312.98,198.83 -498.03,257.48 35.48,182.72 225.16,579.16 303.01,766.04l929.97 2257.73c203.93,508.59 416.9,1006.75 623.47,1509.46 419.3,1020.4 688.39,2055.98 1623.96,2642.62 1486.8,932.29 2789.76,-925.3 5104.7,-783.58 -165.77,-2302.06 1712.44,-3573.72 790.68,-5085.28 -242.92,-398.36 -653.38,-775.62 -1124.71,-1008.16 -422.57,-208.47 -2523.01,-1044.55 -3018.68,-1248.7 -499.28,-205.63 -1013.23,-416.86 -1511.46,-622.09 -253.09,-104.25 -1366.75,-586.65 -1531.48,-618.22 -50.55,165.68 -219.07,355.58 -246.68,486.93z"/>
   <path class="fil1" d="M16017.97 31217.71c102.29,-93.89 152.53,-178.59 247.75,-271.4 277.85,-270.84 608.48,-481.84 958.85,-672.83 1015.5,-553.58 2313.41,-806.9 2767.95,-1598.84 288.34,-502.36 301.56,-1243.44 143,-1842.28 -87.85,-331.79 -1710.47,-4176.7 -1908.13,-4642.06 -108.69,-255.9 -208.98,-504.4 -318.08,-761.6 -74.4,-175.39 -247.09,-655.71 -335.09,-774.06l-528.6 139.67c41.34,181.95 2207.51,5347.59 2284.88,5538.08 189.52,466.7 354.73,1120.58 127.77,1631.55 -192.79,434.05 -604.73,654.19 -1091.61,866.52 -814.37,355.12 -1260.4,448.63 -1886.32,1050.17 -91.61,88.04 -144.44,154.26 -226.39,251.2 -68.72,81.28 -168.9,205.2 -235.97,266.54 -300.6,-272.6 -316.75,-495.79 -1005.17,-953.97 -1093.5,-727.78 -3290.13,-697.07 -2306.55,-3110.9 80.65,-197.94 2243.49,-5348.2 2286.57,-5545.81l-530.7 -134.19c-57.1,81.24 -2473.71,5850.18 -2555.56,6159.96 -157.62,596.61 -156.9,1338.09 128.51,1844.73 259.15,460.03 683.3,686.84 1252.93,929.5 834.27,355.41 1807.97,714.3 2470.86,1344.82 87.55,83.28 174.68,225.99 259.11,285.2z"/>
   <path class="fil1" d="M5262.17 5264.03c148.23,2356.38 -1708.71,3583.66 -794.16,5084.45 256.56,421 654.76,767.64 1128.94,1005.17 462.01,231.43 1023.54,430.22 1503.55,629.28 512.67,212.61 1005.05,414.55 1511.14,622.37 270.73,111.17 2838.22,1196.04 3045.68,1242.14 56.35,-176.47 185.87,-333 261.06,-483.76 -301.54,-153.74 -2231,-933.92 -2675.68,-1113.09 -896.95,-361.4 -1784.8,-737.21 -2680.35,-1109.9 -2276.19,-947.27 -1440.82,-1952.43 -849.88,-3569.8 214.5,-587.08 178.94,-1079.51 129.43,-1726.42 1712.54,125.25 1608.22,-150.36 3082.45,-659.91 1271.7,-439.55 1853.79,457.78 2206.74,1362.63l1111.41 2678.83c191.04,448.53 369.83,900.46 559,1349.09 182.77,433.47 358.25,926.48 560.39,1343.46 153.43,-67.9 300.14,-197.85 485.01,-260.13 -34.73,-170.97 -2354.06,-5770.98 -2486.62,-6042.38 -239.99,-491.33 -586.21,-876 -996.67,-1136.62 -1469.19,-932.83 -2851.08,949.25 -5101.44,784.59z"/>
   <path class="fil1" d="M816.26 16016.89c28.37,47.71 301.84,250.57 523.33,546.97 985.04,1318.15 1082.87,2886.89 2018.13,3426.77 513.79,296.59 1231.75,307.18 1844.63,144.41 350.5,-93.08 2664.92,-1091.72 3100.52,-1266.64 528.55,-212.25 1017.99,-430.22 1541.5,-641.78 245.4,-99.16 1413.53,-554.41 1537.72,-653.75l-141.49 -528.08c-157.86,32.2 -518.95,207.34 -693.25,278.58l-2076.31 860.34c-919.97,390.07 -1849.41,776.77 -2769.44,1145.76 -469.49,188.3 -1121.94,357.83 -1633.78,127.56 -963.69,-433.56 -878.61,-1919.58 -1915.24,-2978.9 -88.53,-90.47 -154.99,-144.49 -251.2,-226.03l-264.56 -235.21c77.38,-75.38 169.53,-151.45 254.68,-220.08 197.16,-158.9 557.35,-554.1 698.54,-782.33 742.12,-1199.61 741.58,-3268.9 3109.4,-2307.98 213.46,86.63 5344.06,2239.06 5549.2,2287.71l136.03 -532.28c-94.87,-63.11 -5841.05,-2464.1 -6166.57,-2555.79 -592.5,-166.91 -1341.07,-150.3 -1840.5,131.6 -833.17,470.27 -1038.75,1741.59 -1606.28,2760.64 -135.19,242.74 -265.1,462.08 -418.75,659.54l-395.59 432.9c-57.53,54.05 -86.45,55.85 -140.71,126.07z"/>
   <path class="fil1" d="M20656.39 14460.91l139.62 530.42c182.69,-40.33 504.47,-199.29 696,-277.5 234.38,-95.73 454.61,-191.54 691.88,-287.17 1384.94,-558.21 2775.23,-1171.8 4152.23,-1721.17 467.92,-186.69 1115.65,-354.85 1628.18,-125.12 976.52,437.71 1013,2201.85 1923.86,2970.48l511.69 466.04c-63.01,74.99 -163.2,148.97 -251.08,224.14 -100.37,85.86 -172.06,142.83 -264.6,237.93 -1055.34,1084.33 -956.94,2563.06 -1916.09,2978.08 -524.41,226.9 -1154.46,65 -1632.84,-128 -918.93,-370.74 -1849.32,-756.73 -2769.38,-1146.06l-2076.97 -860.08c-202.74,-82.65 -494.37,-227.46 -699.32,-279.68l-135.91 529.45c116.97,93.48 4105.39,1723.86 4604.54,1929.64 473.77,195.32 1069.32,489.98 1556.77,626.14 595.14,166.25 1344.69,153.08 1847.97,-127.87 963.52,-537.89 1077.1,-2199.67 2021.77,-3423.35 75.1,-97.28 174.01,-218.31 252.47,-300.28 96.21,-100.51 189.13,-154.67 283.43,-260.05 -66.89,-86.97 -163.22,-140.19 -265.93,-252.33 -728.44,-795.42 -911,-1428.03 -1357.63,-2457.73 -248.43,-572.74 -460.21,-991.76 -922.07,-1260.57 -493.89,-287.46 -1244.21,-307.23 -1837.25,-145.11 -271.7,74.27 -528.19,194.79 -779.93,300.79 -259.31,109.19 -519.97,218.13 -780.57,324 -316.61,128.63 -4501.69,1853.22 -4620.84,1934.98z"/>
   <path class="fil1" d="M14461.7 11382.95l531.53 -140.4c-51.7,-193.41 -2172.12,-5250.78 -2287.13,-5541.91 -188.97,-478.42 -363.84,-1100.54 -125.32,-1627.98 366.57,-810.61 1602.67,-961.08 2435.26,-1480.59 504.98,-315.08 685.3,-640.69 1001.93,-951.91l463.1 511.95c101.74,119.04 374.26,336.02 540.16,438.88 1264.45,783.96 3242.06,716.99 2309.11,3110.11l-2288.62 5548.63 531.69 135.65c91.95,-124.66 1204.51,-2857.64 1288.76,-3065.24 186.58,-459.7 1156.48,-2713.12 1267.47,-3098.5 170.06,-590.5 154.41,-1345.19 -130.04,-1844.59 -260.75,-457.78 -683.23,-687.98 -1254.43,-928.43 -721.82,-303.86 -1926.83,-763.9 -2459.99,-1355.17l-267.2 -274.18 -254.16 262.06c-109.34,110.89 -165.76,161.9 -290.42,262.19 -1166.34,938.34 -2852.04,1040.57 -3426.87,2018.94 -292.33,497.57 -305.34,1243.59 -145.83,1838.87 72.25,269.63 197.19,530.03 300.24,778.65l965.47 2322.46c98.78,230.61 1209,2960.94 1295.3,3080.51z"/>
   <path class="fil1" d="M5261.84 26772.86c1381.36,-89.62 2257.62,480.07 3364.34,875.76 653.47,233.63 1145.94,275.15 1724.04,-82.33 961.49,-594.55 1208.81,-1621.42 1632.49,-2634.05 211.23,-504.86 421.64,-1005.7 623.58,-1509.52 202.49,-505.2 413.77,-1009.48 622.75,-1510.63 104.59,-250.81 581.28,-1364.82 617.96,-1533.43 -186.81,-54.26 -327.11,-203.03 -498.46,-255.23 -59.79,209.57 -2139.2,5181.18 -2215.38,5364.66 -385.42,928.26 -908.42,1795.94 -2211.75,1363.66 -1296.04,-429.87 -1420.52,-791.77 -3078.98,-657.65 113.4,-1763.5 -136.56,-1558.52 -659.09,-3083.54 -444.81,-1298.17 450.7,-1820.89 1362.57,-2209.4 884.23,-376.72 1796.88,-736.84 2681.87,-1107.65l2676.2 -1116.42c-30.73,-140.65 -197,-317.45 -246.9,-488.56 -204.89,45.08 -4128.4,1691.07 -4536.75,1856.99l-1508.22 625.95c-475.35,227.63 -885.35,608.16 -1133.58,998.93 -932.46,1467.98 945.46,2865.15 783.28,5102.44z"/>
   <path class="fil2" d="M15094.82 16097.07c245.44,265.12 1764.88,1109.52 2237.54,1265.06 1003.76,330.33 1846.96,492.02 3002.99,514.11 180.84,-306.31 328.28,-1011.28 367.43,-1412.11 54.96,-562.59 -0.23,-1139.78 -137.74,-1656.76 -270.83,-1018.17 -772.15,-1670.16 -1357.19,-2251.92 -99.94,134.69 -109.82,823.36 -463.43,1444.15 -606.67,1065.04 -2542.68,1663.94 -3649.61,2097.47z"/>
   <path class="fil2" d="M13772.77 16332.89c-207.48,382.5 -256.04,700.89 -668.4,1337.72 -143.28,221.29 -262.88,384.07 -420.52,584.01l-470.19 522.88c623.59,911.61 2054.64,1985.92 3784.08,1940.9 -37.18,-121.48 -187.72,-363.23 -253.94,-487.46 -469.67,-881.22 -1040.36,-2289.67 -1130.6,-3285.52 -21.61,-238.42 -4.36,-493.79 -26.96,-721.75 -293.36,40.74 -481.47,91.7 -813.46,109.21z"/>
   <path class="fil2" d="M16540.39 20687.69c1062.09,-29.28 2440.45,-835.66 3046.11,-1605.2 191.63,-243.47 491.88,-596.15 617.88,-931.21 -195.8,47.75 -459.88,171.38 -686.48,234.79 -900.78,252 -1453.86,253.41 -2300.36,-154.82 -728.56,-351.34 -1053.59,-709.82 -1619.22,-1167.28l-512.21 -416.95c-14.58,887.59 1052.23,3204.03 1454.27,4040.67z"/>
   <path class="fil2" d="M11994.6 18442.11c403.74,-360.11 1098.09,-1399.51 1306.49,-2124.07 -87.4,-69.85 -544.5,-194.75 -439.48,-595.3 99.85,-380.89 626.18,-379.36 663.43,-417.54 79.61,-116.68 26.55,-618.17 0.44,-787.56 -58.58,-380.06 -314.08,-933.08 -489.38,-1266.35l-269.24 -484.3c-4.34,-6.22 -17.56,-24.05 -22.21,-29.67 -23.77,-28.7 -17.08,-21.09 -40.03,-40.65 -227.23,116.26 -695.17,852.48 -835.18,1104.83 -232.16,418.42 -407.98,932.33 -495.23,1462.35 -97.37,591.52 -74.5,1232.27 57.26,1801.16 85.13,367.59 357.02,1154.08 563.14,1377.1z"/>
   <path class="fil2" d="M13088.84 12352.81c648.56,779.56 957.59,1721.27 901.17,3058.18 408.56,177.89 385.23,216.69 646.47,351.39 327.04,-1227.7 1235.17,-3264.64 2098.21,-4148.56l166.93 -134c4.93,-3.5 10.85,-7.36 15.79,-11.03 5.13,-3.82 10.98,-8.21 15.95,-12.12l48.4 -42.35c-1027.78,-223.8 -2234.23,-60.48 -3147.27,437.54 -214.11,116.79 -621.57,353.16 -745.65,500.96z"/>
   <path class="fil2" d="M15105.08 15725.52c650.84,-134.27 1941.5,-952.21 2355.07,-1278.23 543.8,-428.69 854.51,-937.63 1105.58,-1605.69 132.22,-351.81 71.39,-365.25 503.52,-398.16 -323.91,-320.69 -1379.56,-926.46 -1796.22,-944.71 -100.97,142.28 -190.9,348.15 -274.86,504.17 -253.62,471.31 -592.06,1141.43 -849.52,1559.8 -276.13,448.71 -979.91,1563.72 -1043.57,2162.81z"/>
  </g>
 </g>
</svg>
